<?xml version="1.0" encoding="UTF-8" standalone="no"?>
<svg
   xmlns:dc="http://purl.org/dc/elements/1.1/"
   xmlns:cc="http://creativecommons.org/ns#"
   xmlns:rdf="http://www.w3.org/1999/02/22-rdf-syntax-ns#"
   xmlns:svg="http://www.w3.org/2000/svg"
   xmlns="http://www.w3.org/2000/svg"
   viewBox="0 0 361.71249 58.162498"
   height="21"
   width="128"
   xml:space="preserve"
   version="1.1"
   id="svg2"><metadata
     id="metadata8"><rdf:RDF><cc:Work
         rdf:about=""><dc:format>image/svg+xml</dc:format><dc:type
           rdf:resource="http://purl.org/dc/dcmitype/StillImage" /></cc:Work></rdf:RDF></metadata><defs
     id="defs6"><clipPath
       id="clipPath18"
       clipPathUnits="userSpaceOnUse"><path
         id="path20"
         d="m 0,0 2893.69,0 0,465 L 0,465 0,0 Z" /></clipPath></defs><g
     transform="matrix(1.25,0,0,-1.25,0,58.1625)"
     id="g10"><g
       transform="scale(0.1,0.1)"
       id="g12"><g
         id="g14"><g
           clip-path="url(#clipPath18)"
           id="g16"><path
             id="path22"
             style="fill:#41484e;fill-opacity:1;fill-rule:nonzero;stroke:none"
             d="m 946.328,229.609 c 0,94.727 -65.133,165.782 -157.894,165.782 -92.77,0 -157.903,-71.055 -157.903,-165.782 0,-94.746 65.133,-165.7809 157.903,-165.7809 92.761,0 157.894,71.0349 157.894,165.7809 z m -388.824,0 c 0,132.227 102.633,229.61 230.93,229.61 128.281,0 230.926,-97.383 230.926,-229.61 C 1019.36,97.3633 916.715,0 788.434,0 660.137,0 557.504,97.3633 557.504,229.609" /><path
             id="path24"
             style="fill:#41484e;fill-opacity:1;fill-rule:nonzero;stroke:none"
             d="m 1448.96,229.609 c 0,94.727 -65.13,165.782 -157.9,165.782 -92.75,0 -157.9,-71.055 -157.9,-165.782 0,-94.746 65.15,-165.7809 157.9,-165.7809 92.77,0 157.9,71.0349 157.9,165.7809 z m -388.82,0 c 0,132.227 102.63,229.61 230.92,229.61 128.29,0 230.92,-97.383 230.92,-229.61 C 1521.98,97.3633 1419.35,0 1291.06,0 1162.77,0 1060.14,97.3633 1060.14,229.609" /><path
             id="path26"
             style="fill:#41484e;fill-opacity:1;fill-rule:nonzero;stroke:none"
             d="m 1483.83,453.301 77.63,0 126.97,-233.555 125.01,233.555 73.67,0 -164.47,-304.629 0,-142.75403 -70.39,0 0,142.10903 -168.42,305.274" /><path
             id="path28"
             style="fill:#41484e;fill-opacity:1;fill-rule:nonzero;stroke:none"
             d="m 1966.72,307.891 -74.35,-176.973 147.38,0 -73.03,176.973 z M 1840.41,5.91797 l -71.05,0 196.05,456.58203 3.95,0 196.7,-456.58203 -74.34,0 -25.65,62.51953 -200.02,0 -25.64,-62.51953" /><path
             id="path30"
             style="fill:#41484e;fill-opacity:1;fill-rule:nonzero;stroke:none"
             d="M 2694.36,307.891 2620,130.918 l 147.38,0 -73.02,176.973 z M 2568.04,5.91797 l -71.05,0 196.06,456.58203 3.93,0 196.71,-456.58203 -74.33,0 -25.67,62.51953 -200,0 -25.65,-62.51953 z m -365.79,447.38303 70.39,0 0,-384.8635 200,0 -26.98,-62.51953 -243.41,0 0,447.38303" /><path
             id="path32"
             style="fill:#41484e;fill-opacity:1;fill-rule:nonzero;stroke:none"
             d="m 2849.04,438.945 c -2.07,1.172 -5.4,1.739 -9.97,1.739 l -7.03,0 0,-16.934 7.44,0 c 3.49,0 6.1,0.352 7.85,1.055 3.21,1.269 4.82,3.711 4.82,7.304 0,3.399 -1.04,5.664 -3.11,6.836 z m -8.88,7.364 c 5.79,0 10.05,-0.567 12.75,-1.68 4.83,-2.031 7.24,-5.977 7.24,-11.836 0,-4.18 -1.53,-7.246 -4.55,-9.238 -1.64,-1.035 -3.87,-1.797 -6.76,-2.246 3.64,-0.586 6.34,-2.11 8.02,-4.59 1.68,-2.461 2.52,-4.883 2.52,-7.227 l 0,-3.418 c 0,-1.074 0.05,-2.246 0.12,-3.476 0.07,-1.231 0.22,-2.032 0.41,-2.422 l 0.3,-0.586 -7.71,0 c -0.04,0.156 -0.09,0.312 -0.12,0.469 -0.05,0.156 -0.08,0.332 -0.11,0.507 l -0.18,1.504 0,3.711 c 0,5.391 -1.46,8.946 -4.41,10.684 -1.73,0.996 -4.79,1.484 -9.15,1.484 l -6.49,0 0,-18.359 -8.23,0 0,46.719 16.35,0 z m -25.04,2.363 c -7.11,-7.149 -10.67,-15.781 -10.67,-25.899 0,-10.195 3.53,-18.906 10.61,-26.074 7.11,-7.187 15.74,-10.781 25.91,-10.781 10.15,0 18.79,3.594 25.9,10.781 7.11,7.168 10.66,15.879 10.66,26.074 0,10.118 -3.55,18.75 -10.66,25.899 -7.15,7.187 -15.78,10.781 -25.9,10.781 -10.1,0 -18.7,-3.594 -25.85,-10.781 z m 55.98,-56.035 c -8.31,-8.34 -18.35,-12.5 -30.13,-12.5 -11.8,0 -21.81,4.16 -30.09,12.5 -8.21,8.32 -12.34,18.379 -12.34,30.195 0,11.699 4.16,21.719 12.47,30.02 8.26,8.261 18.25,12.402 29.96,12.402 11.78,0 21.82,-4.141 30.13,-12.402 8.3,-8.282 12.45,-18.282 12.45,-30.02 0,-11.777 -4.15,-21.855 -12.45,-30.195" /><path
             id="path34"
             style="fill:#eeae1e;fill-opacity:1;fill-rule:nonzero;stroke:none"
             d="m 306.594,384.59 c 0,-40.586 -32.903,-73.496 -73.496,-73.496 -40.586,0 -73.489,32.91 -73.489,73.496 0,40.586 32.903,73.476 73.489,73.476 40.593,0 73.496,-32.89 73.496,-73.476" /><path
             id="path36"
             style="fill:#95182e;fill-opacity:1;fill-rule:nonzero;stroke:none"
             d="m 146.988,269.551 c 0,-40.586 -32.902,-73.496 -73.4958,-73.496 C 32.9062,196.055 0,228.965 0,269.551 c 0,40.586 32.9062,73.496 73.4922,73.496 40.5938,0 73.4958,-32.91 73.4958,-73.496" /><path
             id="path38"
             style="fill:#9a49aa;fill-opacity:1;fill-rule:nonzero;stroke:none"
             d="m 207.266,80.6641 c 0,-40.586 -32.903,-73.49613 -73.489,-73.49613 -40.5934,0 -73.484,32.91013 -73.484,73.49613 0,40.5859 32.8906,73.4959 73.484,73.4959 40.586,0 73.489,-32.91 73.489,-73.4959" /><path
             id="path40"
             style="fill:#6d9e2d;fill-opacity:1;fill-rule:nonzero;stroke:none"
             d="m 405.918,80.6641 c 0,-40.586 -32.898,-73.49613 -73.484,-73.49613 -40.594,0 -73.504,32.91013 -73.504,73.49613 0,40.5859 32.91,73.4959 73.504,73.4959 40.586,0 73.484,-32.91 73.484,-73.4959" /><path
             id="path42"
             style="fill:#7bd3df;fill-opacity:1;fill-rule:nonzero;stroke:none"
             d="m 466.207,269.551 c 0,-40.586 -32.91,-73.496 -73.488,-73.496 -40.594,0 -73.504,32.91 -73.504,73.496 0,40.586 32.91,73.515 73.504,73.515 40.578,0 73.488,-32.929 73.488,-73.515" /></g></g></g></g></svg>